<svg width="500" height="500" viewBox="0 0 500 500" fill="none" xmlns="http://www.w3.org/2000/svg">
<g clip-path="url(#clip0_79_78)">
<path d="M500 0H0V500H500V0Z" fill="white"/>
<path d="M250.001 317.964C317.471 317.964 372.167 263.195 372.167 195.634C372.167 128.073 317.471 73.3043 250.001 73.3043C182.53 73.3043 127.834 128.073 127.834 195.634C127.834 263.195 182.53 317.964 250.001 317.964Z" fill="url(#paint0_linear_79_78)"/>
<path d="M396.884 292.439L398.385 285.675C398.385 285.675 380.621 285.174 366.861 280.164C353.102 275.153 341.848 264.022 341.848 264.022C341.848 264.022 346.418 265.35 355.393 265.73C365.328 266.15 371.675 264.994 371.675 264.994C371.675 264.994 367.303 262.334 365.802 258.827C365.802 258.827 370.849 261.588 377.922 261.805C386.441 262.068 392.631 261.374 392.631 261.374L394.576 252.136C394.576 252.136 371.933 251.477 347.347 234.817C338.382 228.743 334.689 223.074 334.689 223.074C334.689 223.074 341.292 228.291 351.513 230.21C359.385 231.688 365.859 231.06 365.859 231.06C365.859 231.06 363.108 227.804 362.107 224.547C362.107 224.547 366.11 225.8 367.611 225.8C369.112 225.8 372.114 226.551 372.114 226.551L372.615 221.289L379.369 221.038L382.872 214.776C382.872 214.776 361.856 212.558 349.596 207.028C337.336 201.499 332.682 195.719 332.682 195.719C332.682 195.719 338.277 197.36 342.021 197.613C348.403 198.044 350.892 196.39 350.892 196.39C350.892 196.39 347.723 194.992 346.471 192.988C346.471 192.988 350.757 194.187 356.989 193.662C364.451 193.034 368.237 192.236 368.237 192.236L369.948 185.433C369.948 185.433 353.853 183.917 339.676 174.7C331.291 169.248 328.767 163.185 328.767 163.185C328.767 163.185 330.579 164.419 336.083 166.673C341.587 168.928 344.84 169.679 344.84 169.679C344.84 169.679 342.339 165.169 341.838 162.916C341.838 162.916 347.093 163.918 350.094 162.916L351.212 156.702C351.212 156.702 333.558 150.106 324.035 133.946C324.035 133.946 331.21 137.393 337.566 135.888C337.566 135.888 335.138 134.048 334.404 133.35C333.193 132.198 331.408 130.75 331.408 130.75C331.408 130.75 341.587 131.312 346.591 129.809L347.936 124.035C347.936 124.035 338.145 123.228 328.207 115.69C323.093 111.811 320.697 105.583 320.619 105.377C320.672 105.491 321.181 106.176 326.115 107.477C329.753 108.436 333.47 107.305 333.47 107.305C333.47 107.305 328.466 104.55 327.715 103.047C327.715 103.047 333.97 103.047 337.722 102.045L338.764 97.4031C338.764 97.4031 324.717 95.0081 318.587 79.4116C317.253 76.0173 313.711 61 313.711 61C313.711 61 310.17 76.0173 308.836 79.4116C302.707 95.0081 288.975 96.8783 288.975 96.8783L289.702 102.044C293.455 103.046 299.709 103.046 299.709 103.046C298.958 104.549 293.954 107.304 293.954 107.304C293.954 107.304 297.671 108.434 301.309 107.476C306.245 106.175 306.753 105.49 306.805 105.375C306.727 105.582 304.331 111.809 299.217 115.689C289.279 123.227 279.328 122.967 279.328 122.967L280.833 129.808C285.837 131.311 296.016 130.748 296.016 130.748C296.016 130.748 294.233 132.197 293.02 133.348C292.286 134.048 289.858 135.887 289.858 135.887C296.212 137.392 303.387 133.944 303.387 133.944C293.865 150.105 273.86 156.329 273.86 156.329L277.33 162.914C280.333 163.916 285.587 162.914 285.587 162.914C285.087 165.168 282.585 169.677 282.585 169.677C282.585 169.677 285.837 168.927 291.341 166.671C296.845 164.417 298.657 163.183 298.657 163.183C298.657 163.183 296.133 169.246 287.748 174.699C273.571 183.917 256.323 184.321 256.323 184.321L259.187 192.234C259.187 192.234 269.197 198.586 283.041 198.781C287.754 198.848 293.044 197.453 293.044 197.453C293.044 197.453 290.09 201.494 277.831 207.024C265.571 212.554 244.555 214.771 244.555 214.771L248.058 221.034L254.812 221.285L255.312 226.547C255.312 226.547 258.315 225.796 259.816 225.796C261.317 225.796 265.32 224.542 265.32 224.542C264.319 227.8 261.568 231.056 261.568 231.056C261.568 231.056 268.042 231.684 275.914 230.206C286.136 228.287 292.737 223.07 292.737 223.07C292.737 223.07 289.045 228.739 280.08 234.813C255.495 251.472 230.57 252.094 230.57 252.094L233.904 259.41C233.904 259.41 238.727 261.163 245.804 261.119C253.775 261.068 262.313 258.835 262.313 258.835C260.812 262.343 256.558 265.6 256.558 265.6C256.558 265.6 260.968 266.645 270.069 265.85C276.816 265.261 289.335 260.618 289.335 260.618C289.335 260.618 277.499 275.741 260.564 280.158C246.395 283.854 229.041 285.67 229.041 285.67L230.542 292.433C244.074 299.561 256.486 295.649 256.486 295.649C255.485 297.403 246.304 301.201 246.304 301.201C246.304 301.201 255.796 305.074 269.126 304.162C279.238 303.471 282.581 300.199 282.581 300.199C282.581 303.205 278.578 311.221 278.578 311.221C278.578 311.221 281.829 310.97 290.836 308.215C299.843 305.459 304.497 302.194 304.497 302.194V343.993H313.707H322.917V302.201C322.917 302.201 327.571 305.466 336.578 308.222C345.585 310.977 348.838 311.228 348.838 311.228C348.838 311.228 344.835 303.212 344.835 300.205C344.835 300.205 348.177 303.48 358.289 304.169C371.62 305.079 381.111 301.208 381.111 301.208C381.111 301.208 371.93 297.409 370.93 295.656C370.941 295.654 383.351 299.566 396.884 292.439Z" fill="url(#paint1_linear_79_78)"/>
<path d="M326.076 275.236C341.298 265.942 345.744 257.053 345.744 257.053C345.744 257.053 336.159 259.403 330.876 259.796C325.594 260.188 320.313 259.6 320.313 259.6C320.313 259.6 323.638 257.053 324.812 254.311C324.812 254.311 317.182 256.661 311.705 257.445C306.227 258.228 303.097 257.641 303.097 257.641L300.287 251.103C300.287 251.103 319.924 249.182 338.23 234.893C348.404 226.951 350.434 218.619 350.434 218.619C350.434 218.619 345.85 221.143 340.043 223.493C333.222 226.255 326.266 226.332 326.266 226.332C326.266 226.332 328.418 223.785 329.2 221.239C329.2 221.239 326.069 222.219 324.896 222.219C323.722 222.219 321.375 222.806 321.375 222.806L320.983 218.692L315.702 218.497L312.963 213.599C312.963 213.599 331.446 208.372 342.138 197.948C349.67 190.604 352.648 182.356 352.648 182.356C352.648 182.356 349.877 184.547 345.697 185.647C339.425 187.296 336.842 185.838 336.842 185.838C336.842 185.838 339.033 184.681 339.423 182.918C339.423 182.918 335.314 183.703 332.967 182.918L329.34 179.481C329.34 179.481 343.676 175.671 354.271 163.107C356.667 160.265 358.458 155.976 358.458 155.976C358.458 155.976 355.609 157.52 353.616 157.894C349.723 158.625 346.916 158.522 346.916 158.522C346.916 158.522 346.525 155.192 343.591 154.409L342.575 150.963C342.575 150.963 350.434 148.517 356.255 141.961C363.204 134.136 364.799 124.02 364.799 124.02C364.799 124.02 367.677 134.666 373.343 141.961C379.062 149.323 387.112 150.429 387.112 150.429L386.007 154.409C383.073 155.192 378.182 155.192 378.182 155.192C378.769 156.367 382.681 158.522 382.681 158.522C382.681 158.522 379.874 158.624 375.981 157.894C373.988 157.52 371.139 155.976 371.139 155.976C371.139 155.976 372.877 160.313 375.326 163.107C384.366 173.421 399.964 178.971 399.964 178.971L397.759 182.918C395.412 183.703 391.303 182.918 391.303 182.918C391.695 184.681 395.118 187.725 395.118 187.725C395.118 187.725 391.312 188.128 386.804 186.987C381.57 185.661 375.973 182.121 375.973 182.121C375.973 182.121 379.927 190.604 387.459 197.948C398.151 208.372 416.634 213.599 416.634 213.599L413.896 218.497L408.614 218.692L408.223 222.806C408.223 222.806 405.998 222.756 404.823 222.756C403.648 222.756 402.586 222.357 402.586 222.357C403.368 224.904 403.332 226.332 403.332 226.332C403.332 226.332 396.375 226.255 389.554 223.493C383.748 221.143 379.163 218.619 379.163 218.619C379.163 218.619 381.194 226.951 391.367 234.893C409.674 249.183 428.153 250.787 428.153 250.787L426.501 257.641C426.501 257.641 423.371 258.228 417.893 257.445C412.415 256.662 404.786 254.311 404.786 254.311C405.959 257.053 409.285 259.6 409.285 259.6C409.285 259.6 404.002 260.188 398.721 259.796C393.44 259.403 383.854 257.053 383.854 257.053C383.854 257.053 388.3 265.942 403.521 275.236C417.059 283.502 431 285.421 431 285.421L429.827 290.711C429.827 290.711 422.074 293.498 408.005 293.949C403.664 294.088 398.136 292.864 398.136 292.864C398.136 294.824 400.483 297.565 400.483 297.565C396.766 297.957 389.136 296.782 389.136 296.782C389.136 299.132 392.266 305.402 392.266 305.402C392.266 305.402 389.723 305.206 382.681 303.051C375.638 300.896 372.833 298.344 372.833 298.344V344H356.764V298.344C356.764 298.344 352.514 295.399 345.471 297.554C338.428 299.709 337.33 305.402 337.33 305.402C337.33 305.402 340.46 299.134 340.46 296.782C340.46 296.782 332.831 297.957 329.113 297.565C329.113 297.565 331.46 294.823 331.46 292.864C331.46 292.864 325.931 294.087 321.591 293.949C307.522 293.497 299.77 290.711 299.77 290.711L298.596 285.421C298.599 285.42 312.54 283.501 326.076 275.236Z" fill="url(#paint2_linear_79_78)"/>
<path d="M103.119 292.439L101.618 285.675C101.618 285.675 119.382 285.174 133.142 280.164C146.901 275.153 157.286 262.772 157.286 262.772C157.286 262.772 153.586 265.349 144.61 265.73C134.675 266.15 128.327 264.994 128.327 264.994C128.327 264.994 132.7 262.334 134.201 258.827C134.201 258.827 129.154 261.588 122.08 261.805C113.561 262.068 107.372 261.374 107.372 261.374L105.427 252.136C105.427 252.136 128.07 251.477 152.656 234.817C161.621 228.743 165.313 223.074 165.313 223.074C165.313 223.074 158.712 228.291 148.49 230.21C140.618 231.688 134.142 231.06 134.142 231.06C134.142 231.06 136.895 227.804 137.896 224.547C137.896 224.547 133.893 225.8 132.392 225.8C130.891 225.8 127.888 226.551 127.888 226.551L127.388 221.289L120.634 221.038L117.131 214.776C117.131 214.776 138.147 212.558 150.407 207.028C162.666 201.499 167.32 195.719 167.32 195.719C167.32 195.719 161.726 197.36 157.982 197.613C151.6 198.044 149.11 196.39 149.11 196.39C149.11 196.39 152.28 194.992 153.532 192.988C153.532 192.988 149.246 194.187 143.014 193.662C135.551 193.034 131.766 192.236 131.766 192.236L130.054 185.433C130.054 185.433 146.15 183.917 160.326 174.7C168.711 169.248 171.236 163.185 171.236 163.185C171.236 163.185 169.424 164.419 163.92 166.673C158.415 168.928 155.162 169.679 155.162 169.679C155.162 169.679 157.664 165.169 158.165 162.916C158.165 162.916 152.91 163.918 149.908 162.916L148.79 156.702C148.79 156.702 166.444 150.106 175.966 133.946C175.966 133.946 168.791 137.393 162.435 135.888C162.435 135.888 164.863 134.048 165.598 133.35C166.809 132.198 168.593 130.75 168.593 130.75C168.593 130.75 158.414 131.312 153.41 129.809L152.065 124.035C152.065 124.035 161.857 123.228 171.795 115.69C176.908 111.811 179.304 105.583 179.382 105.377C179.331 105.491 178.821 106.176 173.887 107.477C170.249 108.436 166.532 107.305 166.532 107.305C166.532 107.305 171.535 104.55 172.287 103.047C172.287 103.047 166.031 103.047 162.279 102.045L161.238 97.4031C161.238 97.4031 175.285 95.0081 181.415 79.4116C182.748 76.0173 186.29 61 186.29 61C186.29 61 189.832 76.0173 191.166 79.4116C197.294 95.0081 211.026 96.8783 211.026 96.8783L210.3 102.044C206.546 103.046 200.292 103.046 200.292 103.046C201.043 104.549 206.047 107.304 206.047 107.304C206.047 107.304 202.33 108.434 198.692 107.476C193.757 106.175 193.248 105.49 193.196 105.375C193.274 105.582 195.67 111.809 200.784 115.689C210.722 123.227 220.674 122.967 220.674 122.967L219.168 129.808C214.165 131.311 203.986 130.748 203.986 130.748C203.986 130.748 205.768 132.197 206.981 133.348C207.716 134.048 210.144 135.887 210.144 135.887C203.789 137.392 196.613 133.944 196.613 133.944C206.135 150.105 226.142 156.329 226.142 156.329L222.671 162.914C219.669 163.916 214.414 162.914 214.414 162.914C214.915 165.168 217.416 169.677 217.416 169.677C217.416 169.677 214.165 168.927 208.659 166.671C203.155 164.417 201.343 163.183 201.343 163.183C201.343 163.183 203.867 169.246 212.252 174.699C226.429 183.917 243.676 184.321 243.676 184.321L240.813 192.234C240.813 192.234 223.258 197.661 216.959 198.781C212.318 199.607 206.956 197.453 206.956 197.453C206.956 197.453 209.909 201.494 222.169 207.024C234.429 212.554 255.445 214.771 255.445 214.771L251.942 221.034L245.188 221.285L244.688 226.547C244.688 226.547 241.685 225.796 240.184 225.796C238.683 225.796 234.68 224.542 234.68 224.542C235.681 227.8 238.434 231.056 238.434 231.056C238.434 231.056 231.959 231.684 224.086 230.206C213.864 228.287 207.263 223.07 207.263 223.07C207.263 223.07 210.955 228.739 219.92 234.813C244.505 251.472 269.429 252.094 269.429 252.094L266.096 259.41C266.096 259.41 261.271 261.163 254.196 261.119C246.226 261.068 237.687 258.835 237.687 258.835C239.188 262.343 243.442 265.6 243.442 265.6C243.442 265.6 239.032 266.645 229.931 265.85C223.184 265.261 210.665 260.618 210.665 260.618C210.665 260.618 222.501 275.741 239.436 280.158C253.605 283.854 270.959 285.67 270.959 285.67L269.458 292.433C255.926 299.561 243.514 295.649 243.514 295.649C244.515 297.403 253.696 301.201 253.696 301.201C253.696 301.201 244.204 305.074 230.874 304.162C220.762 303.471 217.419 300.199 217.419 300.199C217.419 303.205 221.422 311.221 221.422 311.221C221.422 311.221 218.171 310.97 209.162 308.215C200.156 305.459 195.502 302.194 195.502 302.194V343.993H186.291H177.081V302.201C177.081 302.201 172.427 305.466 163.421 308.222C154.414 310.977 151.161 311.228 151.161 311.228C151.161 311.228 155.164 303.212 155.164 300.205C155.164 300.205 151.821 303.48 141.709 304.169C128.379 305.079 118.887 301.208 118.887 301.208C118.887 301.208 128.068 297.409 129.069 295.656C129.062 295.654 116.651 299.566 103.119 292.439Z" fill="url(#paint3_linear_79_78)"/>
<path d="M173.926 275.236C158.704 265.942 154.258 257.053 154.258 257.053C154.258 257.053 163.844 259.403 169.125 259.795C174.408 260.188 179.689 259.6 179.689 259.6C179.689 259.6 176.363 257.053 175.19 254.31C175.19 254.31 182.819 256.661 188.297 257.445C193.775 258.228 196.905 257.64 196.905 257.64L199.715 251.103C199.715 251.103 180.078 249.181 161.772 234.893C151.598 226.951 149.567 218.619 149.567 218.619C149.567 218.619 154.152 221.143 159.958 223.493C166.779 226.255 173.736 226.332 173.736 226.332C173.736 226.332 171.584 223.784 170.802 221.239C170.802 221.239 173.932 222.219 175.106 222.219C176.28 222.219 178.627 222.806 178.627 222.806L179.018 218.692L184.3 218.496L187.038 213.599C187.038 213.599 168.555 208.372 157.863 197.948C150.331 190.604 147.354 182.356 147.354 182.356C147.354 182.356 150.125 184.547 154.304 185.647C160.577 187.296 163.158 185.838 163.158 185.838C163.158 185.838 160.967 184.681 160.577 182.918C160.577 182.918 164.686 183.702 167.033 182.918L170.66 179.481C170.66 179.481 156.325 175.67 145.729 163.107C143.333 160.265 141.542 155.976 141.542 155.976C141.542 155.976 144.391 157.52 146.384 157.894C150.277 158.625 153.084 158.522 153.084 158.522L157.426 150.962C157.426 150.962 149.566 148.515 143.745 141.96C136.796 134.134 135.201 124.018 135.201 124.018C135.201 124.018 132.323 134.664 126.657 141.96C120.939 149.322 112.888 150.427 112.888 150.427L113.993 154.407C116.927 155.19 121.818 155.19 121.818 155.19C121.231 156.366 117.319 158.52 117.319 158.52C117.319 158.52 120.126 158.622 124.019 157.892C126.012 157.518 128.861 155.975 128.861 155.975C128.861 155.975 127.123 160.311 124.674 163.105C115.632 173.419 100.036 178.97 100.036 178.97L102.241 182.917C104.588 183.701 108.697 182.917 108.697 182.917C108.305 184.679 104.882 187.723 104.882 187.723C104.882 187.723 108.689 188.127 113.196 186.985C118.431 185.659 124.027 182.12 124.027 182.12C124.027 182.12 120.073 190.603 112.54 197.947C101.848 208.371 83.3645 213.598 83.3645 213.598L86.1034 218.495L91.3859 218.69L91.7775 222.805C91.7775 222.805 94.0034 222.754 95.177 222.754C96.3506 222.754 97.4141 222.355 97.4141 222.355C96.6322 224.902 96.6684 226.33 96.6684 226.33C96.6684 226.33 103.625 226.253 110.446 223.491C116.253 221.141 120.837 218.618 120.837 218.618C120.837 218.618 118.806 226.95 108.633 234.891C90.3266 249.181 71.8475 250.785 71.8475 250.785L73.4992 257.639C73.4992 257.639 76.6297 258.227 82.1073 257.444C87.585 256.661 95.2147 254.309 95.2147 254.309C94.0411 257.052 90.7155 259.599 90.7155 259.599C90.7155 259.599 95.998 260.186 101.279 259.794C106.562 259.402 116.147 257.052 116.147 257.052C116.147 257.052 111.701 265.941 96.4788 275.234C82.9408 283.501 69 285.42 69 285.42L70.1736 290.709C70.1736 290.709 77.9259 293.496 91.995 293.947C96.3367 294.087 101.864 292.863 101.864 292.863C101.864 294.822 99.5173 297.563 99.5173 297.563C103.235 297.956 110.864 296.78 110.864 296.78C110.864 299.131 107.734 305.4 107.734 305.4C107.734 305.4 110.277 305.205 117.319 303.05C124.362 300.895 127.168 298.342 127.168 298.342V343.999H143.237V298.342C143.237 298.342 148.303 295.61 155.345 297.764C162.388 299.919 162.671 305.4 162.671 305.4C162.671 305.4 159.54 299.132 159.54 296.78C159.54 296.78 167.17 297.956 170.887 297.563C170.887 297.563 168.54 294.821 168.54 292.863C168.54 292.863 174.069 294.085 178.409 293.947C192.478 293.495 200.231 290.709 200.231 290.709L201.404 285.42C201.404 285.42 187.464 283.501 173.926 275.236Z" fill="url(#paint4_linear_79_78)"/>
<path d="M361.912 344H138.091L250.001 139.082L361.912 344Z" fill="url(#paint5_linear_79_78)"/>
<path d="M354.56 344H145.443L250.001 150.96L354.56 344Z" fill="white"/>
<path d="M338.81 344H161.192L250.001 180.868L338.81 344Z" fill="url(#paint6_linear_79_78)"/>
<path d="M247.952 270.746H232.253V303.854H247.952V270.746Z" fill="white"/>
<path d="M267.748 270.746H252.985V303.854H267.748V270.746Z" fill="white"/>
<path d="M247.952 308.893H232.253V336.962H247.952V308.893Z" fill="white"/>
<path d="M267.748 308.893H252.985V336.962H267.748V308.893Z" fill="white"/>
<path d="M129.35 386.399L127.436 380.876C125.541 380.876 123.627 380.584 121.695 380.001C121.294 382.334 121.093 384.011 121.093 385.032C121.093 388.568 121.64 391.211 122.734 392.961C120.546 394.602 118.268 395.422 115.898 395.422C113.528 395.422 111.833 394.747 110.812 393.398C109.791 392.013 109.281 389.972 109.281 387.274C109.281 384.54 110.429 376.829 112.726 364.142L109.828 358.291C113.911 355.666 117.666 354.353 121.093 354.353C123.718 354.353 125.741 354.9 127.163 355.994C129.897 354.9 132.358 354.353 134.546 354.353C137.9 354.353 140.561 355.484 142.53 357.744C144.498 360.004 145.483 362.72 145.483 365.892C145.483 368.262 144.881 370.558 143.678 372.782C142.475 374.97 140.707 376.756 138.373 378.141C139.613 381.678 140.998 384.722 142.53 387.274C144.097 389.826 145.647 391.521 147.178 392.359C146.412 393.161 145.227 393.854 143.623 394.437C142.056 395.057 140.634 395.367 139.358 395.367C136.879 395.367 134.892 394.747 133.397 393.508C131.902 392.232 130.554 389.862 129.35 386.399ZM124.101 374.04C127.017 374.04 129.278 373.293 130.882 371.798C132.522 370.303 133.342 368.699 133.342 366.986C133.342 365.272 132.869 363.905 131.921 362.884C130.973 361.863 129.624 361.353 127.874 361.353C126.926 361.353 125.978 361.481 125.03 361.736C123.864 368.699 123.135 372.782 122.843 373.985C123.098 374.022 123.517 374.04 124.101 374.04ZM175.526 365.345C177.568 365.345 179.318 366.165 180.776 367.806C182.271 369.446 183.018 371.834 183.018 374.97C183.018 378.068 182.471 380.949 181.378 383.61C180.284 386.235 178.844 388.386 177.058 390.063C175.271 391.74 173.248 393.052 170.987 394C168.727 394.911 166.412 395.367 164.043 395.367C159.267 395.367 155.493 394.055 152.723 391.43C149.952 388.805 148.567 385.323 148.567 380.985C148.567 375.115 150.444 370.358 154.199 366.712C157.991 363.03 162.803 361.189 168.636 361.189C169.948 361.189 171.261 361.335 172.573 361.627C172.974 362.83 173.193 364.197 173.23 365.728C173.995 365.473 174.761 365.345 175.526 365.345ZM168.8 372.946C168.8 371.926 169.037 370.777 169.511 369.501C170.021 368.225 170.823 367.204 171.917 366.439C167.105 367.46 163.787 369.41 161.964 372.29C160.397 374.769 159.613 377.321 159.613 379.946C159.613 382.571 160.142 384.685 161.199 386.289C162.293 387.857 163.678 388.641 165.355 388.641C169.074 388.641 171.698 386.217 173.23 381.368C170.277 379.545 168.8 376.738 168.8 372.946ZM208.548 387.274L208.001 387C207.016 389.625 205.595 391.685 203.735 393.18C201.912 394.638 199.871 395.367 197.611 395.367C194.512 395.367 192.033 394.201 190.173 391.867C188.314 389.534 187.384 386.417 187.384 382.516C187.384 376.464 189.408 371.397 193.454 367.314C197.538 363.231 202.605 361.189 208.657 361.189C210.225 361.189 211.665 361.335 212.977 361.627C213.196 362.647 213.323 363.54 213.36 364.306C215.183 363.139 217.06 362.556 218.992 362.556C221.654 362.556 222.984 363.996 222.984 366.876C222.984 367.897 222.401 370.978 221.234 376.118C220.104 381.258 219.539 385.068 219.539 387.547C219.539 390.026 220.104 391.74 221.234 392.688C219.193 394.474 217.06 395.367 214.836 395.367C212.649 395.367 211.045 394.711 210.024 393.398C209.04 392.086 208.548 390.044 208.548 387.274ZM197.665 379.837C197.665 381.623 198.03 383.008 198.759 383.993C199.524 384.941 200.6 385.414 201.985 385.414C203.371 385.414 204.738 384.904 206.087 383.883C207.436 382.863 208.566 381.459 209.477 379.673C209.805 375.99 210.516 371.634 211.61 366.603C207.928 366.603 204.683 367.934 201.876 370.595C199.069 373.256 197.665 376.337 197.665 379.837ZM263.36 370.923L263.907 371.196C267.807 364.525 272.583 361.189 278.234 361.189C282.645 361.189 284.851 363.395 284.851 367.806C284.851 369.702 284.304 372.91 283.21 377.43C282.153 381.951 281.625 385.36 281.625 387.657C281.625 389.953 282.007 391.63 282.773 392.688C280.841 394.474 278.799 395.367 276.648 395.367C272.456 395.367 270.359 393.107 270.359 388.586C270.359 386.909 270.906 384.066 272 380.055C273.094 376.045 273.641 373.438 273.641 372.235C273.641 370.595 273.021 369.775 271.781 369.775C270.76 369.775 269.612 370.23 268.336 371.142C267.097 372.017 265.893 373.22 264.727 374.751C263.597 376.246 262.631 378.16 261.829 380.493C261.063 382.79 260.68 385.141 260.68 387.547C260.68 389.917 261.063 391.63 261.829 392.688C259.896 394.474 257.855 395.367 255.704 395.367C251.511 395.367 249.415 393.107 249.415 388.586C249.415 386.909 249.962 384.066 251.056 380.055C252.149 376.045 252.696 373.438 252.696 372.235C252.696 370.595 252.076 369.775 250.837 369.775C249.816 369.775 248.668 370.23 247.392 371.142C246.152 372.017 244.949 373.22 243.783 374.751C242.652 376.246 241.686 378.16 240.884 380.493C240.119 382.79 239.736 385.141 239.736 387.547C239.736 389.917 240.119 391.63 240.884 392.688C238.952 394.474 236.91 395.367 234.76 395.367C230.567 395.367 228.471 393.107 228.471 388.586C228.471 387.128 228.835 384.303 229.564 380.11C230.33 375.918 231.114 372.09 231.916 368.626L229.072 364.251C232.682 362.21 236.017 361.189 239.08 361.189C242.142 361.189 243.673 362.574 243.673 365.345C243.673 367.168 243.254 369.027 242.415 370.923L242.962 371.196C246.863 364.525 251.639 361.189 257.29 361.189C259.331 361.189 260.935 361.699 262.102 362.72C263.305 363.741 263.907 365.272 263.907 367.314C263.907 368.407 263.724 369.611 263.36 370.923ZM296.874 395.422C294.723 395.422 293.137 394.747 292.116 393.398C291.096 392.013 290.585 389.972 290.585 387.274C290.585 384.54 291.734 376.829 294.03 364.142L291.132 358.291C295.252 355.629 299.007 354.299 302.397 354.299C304.548 354.299 305.879 355.32 306.389 357.361C310.509 357.252 315.649 356.322 321.81 354.572C322.102 355.775 322.248 356.96 322.248 358.127C322.248 361.08 321.263 363.304 319.295 364.798C317.363 366.293 314.865 367.04 311.803 367.04C309.725 367.04 307.683 366.603 305.678 365.728C305.387 367.368 304.876 370.048 304.147 373.767C305.496 374.022 306.644 374.149 307.592 374.149C309.087 373.858 310.727 373.438 312.514 372.892C312.696 373.511 312.787 374.532 312.787 375.954C312.787 377.339 312.222 378.451 311.092 379.29C309.962 380.128 308.686 380.548 307.264 380.548C305.879 380.548 304.457 380.383 302.999 380.055C302.598 382.352 302.397 384.521 302.397 386.563H311.256C314.027 386.162 316.816 385.451 319.623 384.43C319.842 385.086 319.951 385.98 319.951 387.11C319.951 389.261 319.313 391.175 318.037 392.852C316.797 394.529 315.066 395.367 312.842 395.367C311.675 395.367 309.962 395.13 307.702 394.656C305.478 394.219 303.819 393.945 302.725 393.836C300.975 394.893 299.025 395.422 296.874 395.422ZM333.192 392.633C331.187 394.201 329.273 394.984 327.45 394.984C325.628 394.984 324.261 394.474 323.349 393.453C322.438 392.432 321.982 391.156 321.982 389.625C321.982 388.058 322.547 386.618 323.677 385.305C324.807 383.993 326.411 383.209 328.49 382.954L337.458 373.438C332.937 373.293 329.82 372.618 328.107 371.415C326.393 370.212 325.537 368.371 325.537 365.892C325.537 364.908 325.737 363.249 326.138 360.916C328.581 361.936 331.406 362.866 334.614 363.705C337.822 364.507 340.338 364.944 342.161 365.017C342.744 363.887 343.601 362.975 344.731 362.283C345.898 361.554 347.265 361.189 348.832 361.189C350.436 361.189 351.731 361.663 352.715 362.611C353.699 363.559 354.191 364.798 354.191 366.329C354.191 368.991 352.861 370.905 350.199 372.071L338.88 385.032C341.249 385.761 343.127 386.144 344.512 386.18L351.949 383.282C352.715 385.25 353.098 387.128 353.098 388.914C353.098 390.664 352.259 392.177 350.582 393.453C348.905 394.729 346.882 395.367 344.512 395.367C342.143 395.367 339.645 394.911 337.02 394C336.109 393.708 334.833 393.253 333.192 392.633ZM373.442 392.906C371.728 393.526 370.015 393.836 368.301 393.836C366.588 393.836 365.148 393.326 363.981 392.305C362.815 391.284 362.14 389.899 361.958 388.149C361.776 386.399 361.612 383.865 361.466 380.548C361.32 377.193 361.174 374.824 361.028 373.438C360.554 368.808 359.096 365.509 356.654 363.54C358.367 361.973 360.518 361.189 363.106 361.189C364.528 361.189 365.768 361.572 366.825 362.337C367.882 363.067 368.721 364.051 369.34 365.29C369.997 366.493 370.525 368.061 370.926 369.993C371.546 373.201 371.856 377.54 371.856 383.008C371.856 384.357 371.801 385.943 371.692 387.766H374.864C378.619 377.631 380.496 370.722 380.496 367.04C380.496 365.801 380.223 364.634 379.676 363.54C382.228 361.973 384.452 361.189 386.347 361.189C389.884 361.189 391.652 363.231 391.652 367.314C391.652 370.558 390.157 376.264 387.168 384.43C386.621 385.925 386.311 386.8 386.238 387.055C381.608 400.252 375.028 406.851 366.497 406.851C363.908 406.851 361.776 406.286 360.099 405.156C358.422 404.062 357.583 402.604 357.583 400.781C357.583 398.995 358.258 397.117 359.607 395.148C361.356 397.627 363.544 398.867 366.169 398.867C367.663 398.867 369.049 398.375 370.325 397.39C371.637 396.406 372.676 394.911 373.442 392.906Z" fill="#1C5E95"/>
</g>
<defs>
<linearGradient id="paint0_linear_79_78" x1="218.336" y1="313.816" x2="281.824" y2="77.4957" gradientUnits="userSpaceOnUse">
<stop offset="0.281" stop-color="#E64A00"/>
<stop offset="1" stop-color="#FFC400"/>
</linearGradient>
<linearGradient id="paint1_linear_79_78" x1="313.895" y1="343.243" x2="313.042" y2="66.3631" gradientUnits="userSpaceOnUse">
<stop stop-color="#040702"/>
<stop offset="1" stop-color="#8A5713"/>
</linearGradient>
<linearGradient id="paint2_linear_79_78" x1="364.989" y1="346.529" x2="364.122" y2="65.2964" gradientUnits="userSpaceOnUse">
<stop stop-color="#040702"/>
<stop offset="1" stop-color="#8A5713"/>
</linearGradient>
<linearGradient id="paint3_linear_79_78" x1="186.462" y1="343.636" x2="185.609" y2="66.7557" gradientUnits="userSpaceOnUse">
<stop stop-color="#040702"/>
<stop offset="1" stop-color="#8A5713"/>
</linearGradient>
<linearGradient id="paint4_linear_79_78" x1="135.392" y1="347.247" x2="134.525" y2="66.0146" gradientUnits="userSpaceOnUse">
<stop stop-color="#040702"/>
<stop offset="1" stop-color="#8A5713"/>
</linearGradient>
<linearGradient id="paint5_linear_79_78" x1="250" y1="343.439" x2="249.147" y2="66.5588" gradientUnits="userSpaceOnUse">
<stop stop-color="#040702"/>
<stop offset="1" stop-color="#8A5713"/>
</linearGradient>
<linearGradient id="paint6_linear_79_78" x1="225.83" y1="381.368" x2="318.762" y2="220.619" gradientUnits="userSpaceOnUse">
<stop stop-color="#3F6F9E"/>
<stop offset="1" stop-color="#51A0CC"/>
</linearGradient>
<clipPath id="clip0_79_78">
<rect width="500" height="500" rx="250" fill="white"/>
</clipPath>
</defs>
</svg>
